<?xml version="1.0" encoding="utf-8"?>
<!-- Generator: Adobe Illustrator 21.1.0, SVG Export Plug-In . SVG Version: 6.00 Build 0)  -->
<svg version="1.1" id="Layer_1" xmlns="http://www.w3.org/2000/svg" xmlns:xlink="http://www.w3.org/1999/xlink" x="0px" y="0px"
	 viewBox="0 0 939.2 144" style="enable-background:new 0 0 939.2 144;" xml:space="preserve">
<style type="text/css">
	.st0{fill:#00C853;}
	.st1{fill:#49D176;}
	.st2{opacity:0.53;fill:#1C1C1C;}
	.st3{opacity:0.28;fill:#1C1C1C;}
</style>
<path class="st1" d="M155.3,65.9c9.6-6.5,16-17.5,16-29.9c0-18.8-14.3-34.2-32.7-35.8V0H63v144h75.7v0c0.2,0,0.4,0,0.7,0
	c22.5,0,40.7-18.2,40.7-40.7C180,86.6,169.8,72.2,155.3,65.9z"/>
<polygon class="st1" points="63,144 135,0 0,0 "/>
<polygon class="st2" points="63,144 135,0 90,144 "/>
<g>
	<path class="st1" d="M208.6,37.5h10.2l17.9,49.4l3.4,9.1h0.5l3.4-9.3l17.8-49.2h9.7l-25.2,67.9h-12.4L208.6,37.5z"/>
	<path class="st1" d="M282.1,37.5h9.4v67.9h-9.4V37.5z"/>
	<path class="st1" d="M308.4,37.5h35.3c6.8,0,12,1.7,15.6,5.2c3.6,3.5,5.4,8.2,5.4,14.1c0,4.6-1.1,8.6-3.3,12
		c-2.2,3.4-5.3,5.8-9.2,7.2l15.6,29.4h-10.5l-14.8-28h-24.9v28h-9.4V37.5z M343.2,69.2c3.7,0,6.6-1.1,8.8-3.3c2.2-2.2,3.3-5.2,3.3-9
		c0-3.6-1-6.3-3.1-8.3c-2-1.9-5-2.9-9-2.9h-25.4v23.5H343.2z"/>
	<path class="st1" d="M395.8,45.8h-23.4v-8.2h56.1v8.2h-23.4v59.7h-9.4V45.8z"/>
	<path class="st1" d="M445.8,100.2c-4.8-4.3-7.2-10.9-7.2-19.8V37.5h9.4v43.4c0,5.8,1.6,10.2,4.8,13.2c3.2,3,7.7,4.5,13.6,4.5
		c5.9,0,10.5-1.5,13.8-4.6c3.2-3,4.9-7.4,4.9-13.2V37.5h9.4v42.9c0,8.9-2.4,15.5-7.2,19.8c-4.8,4.3-11.7,6.4-20.8,6.4
		C457.5,106.6,450.6,104.5,445.8,100.2z"/>
	<path class="st1" d="M529.2,37.5h12l26.3,67.9h-10l-6.8-18.1h-31.5l-6.6,18.1h-9.7L529.2,37.5z M547.7,79.1l-7.9-21.2l-4.6-12.3
		h-0.5l-4.5,12.1l-7.9,21.4H547.7z"/>
	<path class="st1" d="M576.1,37.5h9.4v59.7h34.8v8.2h-44.3V37.5z"/>
	<path class="st1" d="M685.4,39.5c2.9,1.4,5.1,3.4,6.8,6c1.7,2.6,2.5,5.4,2.5,8.6c0,8.4-3.8,13.7-11.4,15.8v0.4c8.6,2,13,7.7,13,17
		c0,3.6-0.9,6.7-2.6,9.5c-1.7,2.7-4.1,4.9-7.2,6.4c-3,1.5-6.4,2.3-10,2.3h-45.9V37.4H676C679.4,37.4,682.5,38.1,685.4,39.5z
		 M652.5,63.9h15c1.5,0,2.7-0.5,3.6-1.5c1-1,1.4-2.3,1.4-3.8v-1c0-1.5-0.5-2.7-1.5-3.7c-1-1-2.2-1.5-3.6-1.5h-15V63.9z M652.5,89.6
		h16.6c1.5,0,2.7-0.5,3.6-1.5c1-1,1.4-2.3,1.4-3.8v-1c0-1.5-0.5-2.8-1.4-3.8c-1-1-2.2-1.5-3.6-1.5h-16.6V89.6z"/>
	<path class="st1" d="M751.6,105.5l-2.9-9.6h-23.9l-2.9,9.6h-22.4l24.8-68.1h25.4l24.8,68.1H751.6z M729.4,80.6h14.8L737,56.4h-0.4
		L729.4,80.6z"/>
	<path class="st1" d="M831.7,105.5l-28.6-33.1v33.1H783V37.4h19.1l28.6,33.6V37.4h20.1v68.1H831.7z"/>
	<path class="st1" d="M911.6,37.4h27.1l-24.5,28l24.9,40.1h-25.8l-14.2-24.9l-11.9,9.7v15.2h-21.9V37.4h21.9v29.1L911.6,37.4z"/>
</g>
<g>
	<path class="st3" d="M208.6,37.5h10.2l17.9,49.4l3.4,9.1h0.5l3.4-9.3l17.8-49.2h9.7l-25.2,67.9h-12.4L208.6,37.5z"/>
	<path class="st3" d="M282.1,37.5h9.4v67.9h-9.4V37.5z"/>
	<path class="st3" d="M308.4,37.5h35.3c6.8,0,12,1.7,15.6,5.2c3.6,3.5,5.4,8.2,5.4,14.1c0,4.6-1.1,8.6-3.3,12
		c-2.2,3.4-5.3,5.8-9.2,7.2l15.6,29.4h-10.5l-14.8-28h-24.9v28h-9.4V37.5z M343.2,69.2c3.7,0,6.6-1.1,8.8-3.3c2.2-2.2,3.3-5.2,3.3-9
		c0-3.6-1-6.3-3.1-8.3c-2-1.9-5-2.9-9-2.9h-25.4v23.5H343.2z"/>
	<path class="st3" d="M395.8,45.8h-23.4v-8.2h56.1v8.2h-23.4v59.7h-9.4V45.8z"/>
	<path class="st3" d="M445.8,100.2c-4.8-4.3-7.2-10.9-7.2-19.8V37.5h9.4v43.4c0,5.8,1.6,10.2,4.8,13.2c3.2,3,7.7,4.5,13.6,4.5
		c5.9,0,10.5-1.5,13.8-4.6c3.2-3,4.9-7.4,4.9-13.2V37.5h9.4v42.9c0,8.9-2.4,15.5-7.2,19.8c-4.8,4.3-11.7,6.4-20.8,6.4
		C457.5,106.6,450.6,104.5,445.8,100.2z"/>
	<path class="st3" d="M529.2,37.5h12l26.3,67.9h-10l-6.8-18.1h-31.5l-6.6,18.1h-9.7L529.2,37.5z M547.7,79.1l-7.9-21.2l-4.6-12.3
		h-0.5l-4.5,12.1l-7.9,21.4H547.7z"/>
	<path class="st3" d="M576.1,37.5h9.4v59.7h34.8v8.2h-44.3V37.5z"/>
</g>
</svg>
