<?xml version="1.0" encoding="utf-8"?>
<!-- Generator: Adobe Illustrator 21.1.0, SVG Export Plug-In . SVG Version: 6.00 Build 0)  -->
<svg version="1.1" id="Layer_1" xmlns="http://www.w3.org/2000/svg" xmlns:xlink="http://www.w3.org/1999/xlink" x="0px" y="0px"
	 viewBox="0 0 227.1 66" style="enable-background:new 0 0 227.1 66;" xml:space="preserve">
<style type="text/css">
	.st0{fill:#0099FF;}
</style>
<g>
	<path class="st0" d="M17.2,52.6c-1.5,0-2.8-0.2-3.8-0.5v-4.6c0.9,0.2,1.8,0.4,2.7,0.4c1,0,1.7-0.3,2.1-0.8c0.4-0.5,0.7-1.3,0.7-2.4
		V25.4h5.8v20.1c0,2.3-0.7,4-2,5.2C21.4,52,19.6,52.6,17.2,52.6z"/>
	<path class="st0" d="M44.6,40.3c0,2.2-0.8,3.8-2.3,5c-1.5,1.1-3.8,1.7-6.8,1.7c-1.5,0-2.9-0.1-3.9-0.3c-1.1-0.2-2.1-0.5-3.1-0.9V41
		c1.1,0.5,2.3,0.9,3.6,1.3c1.3,0.3,2.5,0.5,3.6,0.5c2.1,0,3.1-0.6,3.1-1.8c0-0.5-0.1-0.8-0.4-1.1c-0.3-0.3-0.8-0.6-1.4-1
		c-0.7-0.4-1.6-0.8-2.7-1.3c-1.6-0.7-2.8-1.3-3.6-1.9c-0.8-0.6-1.3-1.2-1.7-2c-0.3-0.8-0.5-1.7-0.5-2.8c0-1.9,0.7-3.3,2.2-4.4
		c1.5-1,3.5-1.5,6.2-1.5c2.6,0,5,0.6,7.5,1.7l-1.7,4.2c-1.1-0.5-2.1-0.8-3-1.1c-0.9-0.3-1.9-0.4-2.8-0.4c-1.7,0-2.6,0.5-2.6,1.4
		c0,0.5,0.3,1,0.8,1.3s1.8,0.9,3.6,1.7c1.7,0.7,2.9,1.3,3.6,1.9c0.8,0.6,1.3,1.3,1.7,2C44.4,38.4,44.6,39.3,44.6,40.3z"/>
	<path class="st0" d="M56.7,47c-6.6,0-9.9-3.6-9.9-10.9c0-3.6,0.9-6.4,2.7-8.3c1.8-1.9,4.4-2.9,7.7-2.9c2.5,0,4.7,0.5,6.6,1.4
		l-1.7,4.5c-0.9-0.4-1.8-0.7-2.5-0.9c-0.8-0.2-1.6-0.4-2.4-0.4c-3,0-4.5,2.1-4.5,6.4c0,4.1,1.5,6.2,4.5,6.2c1.1,0,2.1-0.1,3.1-0.4
		c0.9-0.3,1.9-0.8,2.8-1.4v5c-0.9,0.6-1.9,1-2.8,1.2C59.4,46.9,58.2,47,56.7,47z"/>
	<path class="st0" d="M172.9,46.6h-5.8V17.5h5.8V46.6z"/>
	<path class="st0" d="M187.6,47c-3.4,0-6.1-0.9-8-2.8c-1.9-1.9-2.9-4.6-2.9-8c0-3.6,0.9-6.3,2.7-8.2c1.8-1.9,4.2-2.9,7.4-2.9
		c3,0,5.3,0.9,7,2.6c1.7,1.7,2.5,4.1,2.5,7.1v2.8h-13.7c0.1,1.6,0.6,2.9,1.5,3.9c0.9,0.9,2.2,1.4,3.8,1.4c1.3,0,2.5-0.1,3.6-0.4
		s2.3-0.7,3.6-1.3v4.5c-1,0.5-2.1,0.9-3.2,1.1C190.6,46.9,189.2,47,187.6,47z M186.7,29.1c-1.2,0-2.2,0.4-2.9,1.2
		c-0.7,0.8-1.1,1.9-1.2,3.3h8.1c0-1.4-0.4-2.5-1.1-3.3C188.9,29.5,188,29.1,186.7,29.1z"/>
	<path class="st0" d="M136.7,26.9c-1.2-1.2-3.1-1.8-5.5-1.8c-4.2,0-6.8,3.1-6.8,3.1c-1.1-2.1-3.3-3.1-6.4-3.1
		c-1.4,0-2.6,0.3-3.7,0.8c-1.1,0.6-1.9,1.3-2.5,2.3v-2.7h-5.5v21.2h5.8v-10c0-2.5,0.3-4.3,1-5.4c0.7-1.1,1.7-1.6,3.2-1.6
		c1.1,0,1.9,0.4,2.4,1.1c0.5,0.8,0.8,1.9,0.8,3.4v12.4h5.8V36c0-2.2,0.4-3.8,1.1-4.8c0.7-1,1.8-1.5,3.2-1.5c1.1,0,1.9,0.4,2.4,1.1
		c0.5,0.8,0.8,1.9,0.8,3.4v12.4h5.8V32.8C138.5,30.1,137.9,28.1,136.7,26.9z"/>
	<path class="st0" d="M161.1,27.9c-1.4-2-3.4-2.9-5.9-2.9c-2.7,0-4.7,1-6,3.1V17.5h-5.8v29.1h5.8v-2.4c1.4,1.8,3.4,2.7,5.9,2.7
		c2.5,0,4.5-1,6-2.9c1.5-1.9,2.2-4.6,2.2-8.1C163.3,32.6,162.6,29.9,161.1,27.9z M156.3,40.7c-0.7,1.1-1.6,1.6-2.8,1.6
		c-1.5,0-2.5-0.5-3.2-1.5c-0.7-1-1-2.6-1-4.9v-0.6c0-2,0.4-3.5,1-4.4c0.7-0.9,1.7-1.3,3.1-1.3c1.2,0,2.2,0.5,2.9,1.6
		c0.7,1,1.1,2.6,1.1,4.7C157.4,38,157,39.6,156.3,40.7z"/>
	<path class="st0" d="M211.8,25c-1.3,0-2.5,0.4-3.7,1.1c-1.1,0.7-2,1.7-2.7,2.9v-3.6h-1.1h-4.4v21.2h5.8V35.8c0-1.7,0.5-3,1.5-4
		c1-0.9,2.5-1.4,4.3-1.4c0.7,0,1.2,0.1,1.7,0.2l0.4-5.4C213.2,25.1,212.6,25,211.8,25z"/>
	<path class="st0" d="M99,26.8c-1.5-1.2-3.7-1.9-6.5-1.9c-3,0-5.7,0.6-8.1,1.9l1.9,3.9c2.3-1,4.3-1.5,6-1.5c2.2,0,3.3,1.1,3.3,3.2
		v0.9l-3.7,0.1c-3.2,0.1-5.5,0.7-7.1,1.8c-1.6,1.1-2.4,2.7-2.4,5c0,2.1,0.6,3.8,1.8,5c1.2,1.2,2.8,1.7,4.8,1.7c1.7,0,3-0.2,4-0.7
		c1-0.5,2-1.3,3-2.6v2.9h5.3V32.5C101.3,30,100.6,28.1,99,26.8z M95.6,38.5c0,1.3-0.4,2.3-1.2,3.1c-0.8,0.8-1.9,1.2-3.2,1.2
		c-1.9,0-2.8-0.8-2.8-2.4c0-1.1,0.4-2,1.2-2.5c0.8-0.6,2.1-0.9,3.8-0.9l2.2-0.1V38.5z"/>
	<path class="st0" d="M79,25c-1.3,0-2.5,0.4-3.7,1.1c-1.1,0.7-2,1.7-2.7,2.9v-3.6h-5.5v21.2h5.8V35.8c0-1.7,0.5-3,1.5-4
		c1-0.9,2.5-1.4,4.3-1.4c0.7,0,1.2,0.1,1.7,0.2l0.4-5.4C80.4,25.1,79.8,25,79,25z"/>
	<g>
		<path class="st0" d="M21.8,0c-1.5,2.1-4.2,4.1-8,4.1c0,10.5,8,14.6,8,14.6s8-4,8-14.6C26,4.1,23.3,2.1,21.8,0z"/>
		<g>
			<path class="st0" d="M34.5,4.1L34.5,4.1c0,2.2-0.3,4.1-0.7,5.9h187.4v50.1H5.9V10h3.9C9.4,8.2,9.1,6.3,9.1,4.1v0H0V66h227.1V4.1
				H34.5z"/>
		</g>
	</g>
</g>
</svg>
